<?xml version="1.0" encoding="utf-8"?>
<!-- Generator: Adobe Illustrator 24.1.0, SVG Export Plug-In . SVG Version: 6.00 Build 0)  -->
<svg version="1.1" id="Laag_1" xmlns="http://www.w3.org/2000/svg" xmlns:xlink="http://www.w3.org/1999/xlink" x="0px" y="0px"
	 viewBox="0 0 566.9 566.9" style="enable-background:new 0 0 566.9 566.9;" xml:space="preserve">
<style type="text/css">
	.st0{fill:#FFFFFF;}
	.st1{fill:url(#SVGID_2_);}
	.st2{clip-path:url(#SVGID_4_);}
	.st3{fill:url(#SVGID_5_);}
	.st4{fill:url(#SVGID_6_);}
	.st5{fill:url(#SVGID_7_);}
	.st6{fill:url(#SVGID_8_);}
	.st7{fill:url(#SVGID_9_);}
	.st8{fill:url(#SVGID_10_);}
	.st9{fill:url(#SVGID_11_);}
	.st10{clip-path:url(#SVGID_13_);fill:url(#SVGID_14_);}
	.st11{fill:url(#SVGID_15_);}
	.st12{fill:url(#SVGID_16_);}
	.st13{fill:url(#SVGID_17_);}
	.st14{fill:url(#SVGID_18_);}
	.st15{fill:#CC071E;}
</style>
<g>
	<circle class="st0" cx="282.7" cy="282.8" r="264.3"/>
	<g>
		<g>
			
				<radialGradient id="SVGID_2_" cx="320.8127" cy="484.9001" r="175.6822" gradientTransform="matrix(1 0 0 1 0 -224)" gradientUnits="userSpaceOnUse">
				<stop  offset="0" style="stop-color:#FFFFFF"/>
				<stop  offset="6.028983e-02" style="stop-color:#FCFEFF"/>
				<stop  offset="0.1097" style="stop-color:#F4FAFE"/>
				<stop  offset="0.1554" style="stop-color:#E6F5FC"/>
				<stop  offset="0.1986" style="stop-color:#D1ECF9"/>
				<stop  offset="0.24" style="stop-color:#B4E1F6"/>
				<stop  offset="0.253" style="stop-color:#A8DCF4"/>
				<stop  offset="0.7442" style="stop-color:#0055A1"/>
				<stop  offset="1" style="stop-color:#000023"/>
			</radialGradient>
			<circle id="SVGID_1_" class="st1" cx="282.7" cy="282.8" r="194.9"/>
		</g>
		<g>
			<g>
				<defs>
					<circle id="SVGID_3_" cx="282.7" cy="282.8" r="194.9"/>
				</defs>
				<clipPath id="SVGID_4_">
					<use xlink:href="#SVGID_3_"  style="overflow:visible;"/>
				</clipPath>
				<g class="st2">
					
						<radialGradient id="SVGID_5_" cx="383.8" cy="444.8" r="43.5019" gradientTransform="matrix(1 0 0 1 0 -224)" gradientUnits="userSpaceOnUse">
						<stop  offset="0.6389" style="stop-color:#FFFFFF;stop-opacity:0.2"/>
						<stop  offset="1" style="stop-color:#FFFFFF;stop-opacity:0"/>
					</radialGradient>
					<circle class="st3" cx="383.8" cy="220.8" r="43.9"/>
					
						<radialGradient id="SVGID_6_" cx="148.3975" cy="544.8915" r="121.7506" gradientTransform="matrix(0.9853 0.1707 -0.1707 0.9853 48.1969 -268.0131)" gradientUnits="userSpaceOnUse">
						<stop  offset="0.6389" style="stop-color:#FFFFFF;stop-opacity:0.3"/>
						<stop  offset="1" style="stop-color:#FFFFFF;stop-opacity:0"/>
					</radialGradient>
					<circle class="st4" cx="101.4" cy="294.2" r="122.9"/>
					
						<radialGradient id="SVGID_7_" cx="269.3702" cy="493.8918" r="26.7528" gradientTransform="matrix(0.9853 0.1707 -0.1707 0.9853 48.1969 -268.0131)" gradientUnits="userSpaceOnUse">
						<stop  offset="0.6385" style="stop-color:#FFFFFF;stop-opacity:0.1"/>
						<stop  offset="1" style="stop-color:#FFFFFF;stop-opacity:0"/>
					</radialGradient>
					<circle class="st5" cx="229.3" cy="264.6" r="27"/>
					
						<radialGradient id="SVGID_8_" cx="235.3435" cy="509.8137" r="13.2154" gradientTransform="matrix(0.9853 0.1707 -0.1707 0.9853 48.1969 -268.0131)" gradientUnits="userSpaceOnUse">
						<stop  offset="0.6389" style="stop-color:#FFFFFF;stop-opacity:0.2"/>
						<stop  offset="1" style="stop-color:#FFFFFF;stop-opacity:0"/>
					</radialGradient>
					<circle class="st6" cx="193" cy="274.5" r="13.3"/>
					
						<radialGradient id="SVGID_9_" cx="487.9153" cy="383.3614" r="75.19" gradientTransform="matrix(0.9853 0.1707 -0.1707 0.9853 48.1969 -268.0131)" gradientUnits="userSpaceOnUse">
						<stop  offset="0.6389" style="stop-color:#FFFFFF;stop-opacity:0.2"/>
						<stop  offset="1" style="stop-color:#FFFFFF;stop-opacity:0"/>
					</radialGradient>
					<circle class="st7" cx="463.5" cy="193" r="75.9"/>
					
						<radialGradient id="SVGID_10_" cx="330.258" cy="466.9015" r="14.0264" gradientTransform="matrix(0.9853 0.1707 -0.1707 0.9853 48.1969 -268.0131)" gradientUnits="userSpaceOnUse">
						<stop  offset="0.6389" style="stop-color:#FFFFFF;stop-opacity:0.2"/>
						<stop  offset="1" style="stop-color:#FFFFFF;stop-opacity:0"/>
					</radialGradient>
					<circle class="st8" cx="293.9" cy="248.4" r="14.2"/>
					
						<radialGradient id="SVGID_11_" cx="186.3192" cy="533.5516" r="23.508" gradientTransform="matrix(0.9853 0.1707 -0.1707 0.9853 48.1969 -268.0131)" gradientUnits="userSpaceOnUse">
						<stop  offset="0.6389" style="stop-color:#FFFFFF;stop-opacity:0.2"/>
						<stop  offset="1" style="stop-color:#FFFFFF;stop-opacity:0"/>
					</radialGradient>
					<circle class="st9" cx="140.7" cy="289.5" r="23.7"/>
				</g>
			</g>
		</g>
		<g>
			<g>
				<defs>
					<circle id="SVGID_12_" cx="282.7" cy="282.8" r="194.9"/>
				</defs>
				<clipPath id="SVGID_13_">
					<use xlink:href="#SVGID_12_"  style="overflow:visible;"/>
				</clipPath>
				
					<radialGradient id="SVGID_14_" cx="321.6455" cy="491.9209" r="177.6912" gradientTransform="matrix(1 0 0 1 0 -224)" gradientUnits="userSpaceOnUse">
					<stop  offset="1.014614e-03" style="stop-color:#0055A1"/>
					<stop  offset="1" style="stop-color:#000000"/>
				</radialGradient>
				<rect x="34.4" y="347.1" class="st10" width="525.4" height="133.3"/>
			</g>
		</g>
	</g>
	
		<radialGradient id="SVGID_15_" cx="325.9025" cy="458.6725" r="75.8022" gradientTransform="matrix(1 0 0 1 0 -224)" gradientUnits="userSpaceOnUse">
		<stop  offset="0" style="stop-color:#FFFFFF"/>
		<stop  offset="5.824665e-02" style="stop-color:#FCFEFF"/>
		<stop  offset="0.106" style="stop-color:#F4FAFE"/>
		<stop  offset="0.1501" style="stop-color:#E6F5FC"/>
		<stop  offset="0.192" style="stop-color:#D1ECF9"/>
		<stop  offset="0.2323" style="stop-color:#B3E0F6"/>
		<stop  offset="0.2709" style="stop-color:#89D1F1"/>
		<stop  offset="0.2985" style="stop-color:#5AC4ED"/>
		<stop  offset="0.7412" style="stop-color:#0056A2"/>
		<stop  offset="0.8915" style="stop-color:#0057A2"/>
		<stop  offset="0.9456" style="stop-color:#005AA5"/>
		<stop  offset="0.984" style="stop-color:#0060AA"/>
		<stop  offset="1" style="stop-color:#0064AD"/>
	</radialGradient>
	<path class="st11" d="M337.6,172c0-7.6-24.6-13.7-54.9-13.7s-54.9,6.2-54.9,13.7l-19.5,140.4c5.8-1.7,33.3-5.5,74.4-5.5
		s62.1,2.9,74.5,5.6L337.6,172z"/>
	
		<linearGradient id="SVGID_16_" gradientUnits="userSpaceOnUse" x1="352.7498" y1="542.3658" x2="219.5145" y2="564.8493" gradientTransform="matrix(1 0 0 1 0 -224)">
		<stop  offset="1.014614e-03" style="stop-color:#0055A1"/>
		<stop  offset="1" style="stop-color:#000000"/>
	</linearGradient>
	<path class="st12" d="M364.5,315.5c0-5.3-36.6-9.5-81.8-9.5s-81.8,4.3-81.8,9.5l-3.7,31.4l171.5,0.2L364.5,315.5z"/>
	
		<linearGradient id="SVGID_17_" gradientUnits="userSpaceOnUse" x1="334.4305" y1="451.4134" x2="468.519" y2="451.4134" gradientTransform="matrix(0.9996 2.818423e-02 -2.818423e-02 0.9996 8.0707 -237.8307)">
		<stop  offset="0" style="stop-color:#FFFFFF;stop-opacity:0.3"/>
		<stop  offset="1" style="stop-color:#FFFFFF;stop-opacity:0"/>
	</linearGradient>
	<path class="st13" d="M332.8,228.6l110.1-55.9c3.8-1.9,8.3,0.6,8.8,4.9l10.6,95.7c0.5,4.6-3.8,8.3-8,6.8l-120.7-39.9
		C328.3,238.7,327.8,231.2,332.8,228.6z"/>
	
		<linearGradient id="SVGID_18_" gradientUnits="userSpaceOnUse" x1="315.1645" y1="448.0814" x2="124.2637" y2="466.9962" gradientTransform="matrix(1 0 0 1 0 -224)">
		<stop  offset="6.612653e-02" style="stop-color:#FFFFFF;stop-opacity:0.2"/>
		<stop  offset="0.8499" style="stop-color:#FFFFFF;stop-opacity:0"/>
	</linearGradient>
	<path class="st14" d="M317.4,244.6L139.9,324c-6.2,2.8-13.1-1.3-13.7-7.9l-11.8-145.6c-0.6-7,6.4-12.3,13.1-10l189.3,66.2
		C325.1,229.6,325.5,241,317.4,244.6z"/>
	<g>
		<path class="st15" d="M84.1,422.8l-5.9-9.1c-0.7-1.1-1.3-2.3-1.6-3.4c-0.4-1.1-0.5-2.2-0.4-3.3c0.1-1,0.4-2,1-3
			c0.6-0.9,1.4-1.8,2.5-2.5c1.5-1,3-1.3,4.5-1.1c1.5,0.2,2.9,0.9,4.2,1.9h0.1c-0.5-0.8-0.7-1.7-0.8-2.6c-0.1-0.9,0-1.8,0.2-2.7
			c0.3-0.9,0.7-1.7,1.2-2.5c0.6-0.8,1.3-1.5,2.2-2c1.2-0.8,2.4-1.2,3.6-1.3c1.2-0.1,2.4,0.1,3.6,0.5s2.3,1.1,3.3,2s2,2,2.8,3.3
			l5.8,9L84.1,422.8z M92.7,412.2l-3.1-4.8c-0.4-0.7-0.9-1.2-1.4-1.8c-0.5-0.5-1.1-0.9-1.7-1.1s-1.2-0.3-1.9-0.3
			c-0.7,0.1-1.3,0.3-2.1,0.8c-1,0.7-1.7,1.6-2.1,2.7c-0.3,1.2,0,2.5,0.9,3.9l3.6,5.6L92.7,412.2z M104.9,404.3l-3.4-5.2
			c-0.4-0.5-0.8-1.1-1.3-1.7s-1.1-1-1.8-1.4c-0.7-0.4-1.5-0.5-2.3-0.6c-0.8,0-1.7,0.3-2.6,0.9c-1.6,1-2.4,2.3-2.5,3.8
			s0.4,3.1,1.5,4.9l3.4,5.2L104.9,404.3z"/>
		<path class="st15" d="M66.4,393.4l-1.8-3.8L89.2,378l-6.1-13l3.6-1.7l7.9,16.7L66.4,393.4z"/>
		<path class="st15" d="M51.5,357l-1.1-3.7l25.8-22l1.5,4.7l-6.4,5.3l4.4,14.2l8.3,0.6l1.5,4.7L51.5,357z M68.1,343.8l-11.9,9.8v0.1
			l15.4,1.4L68.1,343.8z"/>
		<path class="st15" d="M43.6,325.8l18.9-2.8c1-0.1,1.9-0.4,2.9-0.8s1.9-1,2.7-1.7s1.4-1.6,1.8-2.7s0.5-2.3,0.3-3.8
			s-0.7-2.6-1.4-3.5c-0.7-0.9-1.5-1.6-2.5-2.1s-2-0.8-3-0.9c-1.1-0.1-2.1-0.1-3,0l-18.9,2.8l-0.6-4.2l19.5-2.9
			c1.8-0.3,3.5-0.2,5,0.2c1.6,0.4,2.9,1.1,4.2,2c1.2,0.9,2.2,2.1,3,3.4c0.8,1.4,1.3,2.9,1.6,4.6c0.2,1.7,0.2,3.3-0.2,4.8
			c-0.4,1.5-1,2.9-1.9,4.2c-0.9,1.2-2.1,2.3-3.4,3.1c-1.4,0.8-3,1.4-4.8,1.6L44.2,330L43.6,325.8z"/>
		<path class="st15" d="M40.1,292.3l-0.1-4.2l27.2-0.4L67,273.3l4-0.1l0.3,18.5L40.1,292.3z"/>
		<path class="st15" d="M40.7,263.4l0.4-4.2l31,2.7l-0.4,4.2L40.7,263.4z"/>
		<path class="st15" d="M53.6,225.1c-1.3,0.6-2.4,1.5-3.3,2.7c-0.9,1.2-1.5,2.5-1.7,3.9c-0.4,1.7-0.4,3.3,0,4.9
			c0.4,1.5,1,2.9,1.9,4.1c0.9,1.2,2.1,2.3,3.5,3.1c1.4,0.9,3,1.5,4.7,1.8c1.6,0.3,3.2,0.4,4.7,0.2s3-0.7,4.3-1.5s2.4-1.8,3.3-3
			c0.9-1.3,1.6-2.8,1.9-4.6c0.4-1.8,0.3-3.4-0.1-4.8c-0.4-1.5-1.2-2.8-2.3-4l3.3-3c0.3,0.3,0.6,0.8,1.1,1.5s0.9,1.6,1.3,2.6
			c0.4,1.1,0.7,2.3,0.8,3.7c0.2,1.4,0.1,3-0.3,4.8c-0.5,2.4-1.4,4.5-2.7,6.2s-2.9,3.2-4.6,4.2c-1.8,1.1-3.7,1.8-5.7,2.1
			c-2,0.3-4,0.3-5.9-0.1c-2.4-0.5-4.5-1.3-6.3-2.5s-3.3-2.6-4.5-4.3s-1.9-3.6-2.4-5.7c-0.4-2.1-0.4-4.4,0.1-6.7
			c0.4-2,1.2-3.9,2.4-5.7s2.7-3.1,4.6-4L53.6,225.1z"/>
		<path class="st15" d="M51.5,207.7l1.5-3.9l12.1,4.6l5.8-15.1l-12.1-4.6l1.5-3.9l29.1,11.1l-1.5,3.9l-13.3-5.1l-5.8,15.1l13.3,5.1
			l-1.5,3.9L51.5,207.7z"/>
		<path class="st15" d="M73.5,167.5l-4.9,8.7l-3.4-1.9l11.9-21.2l3.4,1.9l-4.9,8.7l23.7,13.4l-2.1,3.7L73.5,167.5z"/>
		<path class="st15" d="M105.1,140.9c-0.8-0.7-1.5-1.5-1.9-2.4s-0.7-1.9-0.8-2.9s0-2,0.3-3s0.8-1.9,1.5-2.7s1.5-1.5,2.4-1.9
			c0.9-0.4,1.9-0.7,2.9-0.8c1-0.1,2,0,3,0.3s1.9,0.8,2.7,1.5c0.8,0.7,1.5,1.5,1.9,2.4s0.7,1.9,0.8,2.9c0.1,1,0,2-0.3,3
			s-0.8,1.9-1.5,2.7s-1.5,1.5-2.4,1.9s-1.9,0.7-2.9,0.8s-2,0-3-0.3C106.8,142.1,105.9,141.6,105.1,140.9z"/>
		<path class="st15" d="M125.8,97.3l8.6-6.8c1.6-1.2,3-2,4.4-2.4s2.6-0.5,3.7-0.3c1.1,0.2,2.1,0.6,3,1.3c0.9,0.6,1.6,1.3,2.2,2.1
			c0.6,0.8,1.1,1.7,1.4,2.6c0.3,0.9,0.4,1.9,0.4,2.9c-0.1,1-0.3,2-0.7,3s-1.1,1.9-1.9,2.7l15.7,5.7l-4.2,3.3l-14.7-5.9l-3.7,2.9
			l8.5,10.8l-3.3,2.6L125.8,97.3z M137.6,105.5l4.4-3.4c0.6-0.5,1.2-1.1,1.8-1.7s1-1.2,1.3-1.9c0.3-0.7,0.4-1.4,0.3-2.1
			c-0.1-0.8-0.5-1.5-1.1-2.4s-1.3-1.4-2-1.7c-0.7-0.3-1.4-0.4-2.1-0.3c-0.7,0.1-1.4,0.4-2.1,0.8c-0.7,0.4-1.4,0.8-2,1.3l-4.4,3.4
			L137.6,105.5z"/>
		<path class="st15" d="M152.9,77.4l17.4-10.1l2,3.4l-13.7,8l4.7,8l12.8-7.4l2,3.4l-12.8,7.4l5,8.6l14.4-8.4l2,3.4l-18.1,10.5
			L152.9,77.4z"/>
		<path class="st15" d="M190,62.6l-9.3,3.8l-1.5-3.7l22.5-9.2l1.5,3.7l-9.3,3.8l10.3,25.1l-3.9,1.6L190,62.6z"/>
		<path class="st15" d="M219.6,52.4l-9.7,2.6l-1-3.8l23.5-6.2l1,3.8l-9.7,2.6l6.9,26.3l-4.1,1.1L219.6,52.4z"/>
		<path class="st15" d="M243.5,43l20-2.5l0.5,3.9l-15.8,1.9l1.1,9.2l14.7-1.8l0.5,3.9l-14.7,1.8l1.2,9.9l16.6-2l0.5,3.9l-20.7,2.5
			L243.5,43z"/>
		<path class="st15" d="M283.5,44l-10-0.2l0.1-4l24.3,0.4l-0.1,4l-10-0.2l-0.4,27.2l-4.2-0.1L283.5,44z"/>
		<path class="st15" d="M321.8,58.8c0.2-1.1,0.6-2,1.2-2.8s1.3-1.5,2.1-2.1c0.8-0.5,1.8-0.9,2.8-1.1c1-0.2,2-0.2,3.1,0
			s2,0.6,2.8,1.2c0.8,0.6,1.5,1.3,2.1,2.1c0.5,0.8,0.9,1.8,1.1,2.8s0.2,2,0,3.1s-0.6,2-1.2,2.8s-1.3,1.5-2.1,2.1s-1.8,0.9-2.8,1.1
			s-2,0.2-3.1,0s-2-0.6-2.8-1.2s-1.5-1.3-2.1-2.1c-0.5-0.8-0.9-1.8-1.1-2.8C321.6,60.9,321.6,59.9,321.8,58.8z"/>
		<path class="st15" d="M370.4,56l3.9,1.7L369,69.6l14.7,6.6l5.3-11.8l3.9,1.7l-12.7,28.4l-3.9-1.7l5.8-13l-14.7-6.6l-5.8,13
			l-3.9-1.7L370.4,56z"/>
		<path class="st15" d="M405.3,73.2l3.6,2.2l-16,26.7l-3.6-2.2L405.3,73.2z"/>
		<path class="st15" d="M420.6,82.8l3.4,2.5l-16.1,21.9l11.5,8.5l-2.3,3.2l-14.9-11L420.6,82.8z"/>
		<path class="st15" d="M443.7,100.8l14.2,13.5l-2.7,2.9L444,106.6l-6.7,7.1l10.4,9.9l-2.7,2.9l-10.4-9.9l-9.3,9.8l-3.1-2.9
			L443.7,100.8z"/>
		<path class="st15" d="M467.1,131l-6.3-7.8l3.1-2.5l15.3,18.9l-3.1,2.5l-6.3-7.8l-21.1,17.1l-2.7-3.3L467.1,131z"/>
		<path class="st15" d="M480.2,170.1c1-0.5,2-0.8,3-0.9c1-0.1,2,0,3,0.3s1.8,0.8,2.6,1.4c0.8,0.6,1.5,1.4,2,2.4s0.8,2,0.9,3
			s0,2-0.3,3s-0.8,1.8-1.4,2.6s-1.4,1.5-2.4,2s-2,0.8-3,0.9c-1,0.1-2,0-3-0.3s-1.8-0.8-2.6-1.4s-1.5-1.4-2-2.4s-0.8-2-0.9-3
			s0-2,0.3-3s0.8-1.8,1.4-2.6C478.4,171.3,479.2,170.6,480.2,170.1z"/>
		<path class="st15" d="M489.7,213.3c-0.9,1.1-1.4,2.2-1.6,3.5s-0.1,2.5,0.3,3.8c0.2,0.7,0.5,1.3,0.9,2c0.4,0.6,0.9,1.2,1.5,1.6
			c0.6,0.4,1.3,0.8,2,0.9c0.7,0.2,1.5,0.1,2.3-0.1c1.2-0.3,1.9-1,2.3-1.9s0.6-2,0.7-3.2s0.1-2.5,0.1-3.9s0.2-2.7,0.5-4
			c0.4-1.3,1-2.5,1.9-3.5c0.9-1.1,2.4-1.9,4.3-2.5c0.9-0.3,1.9-0.3,3-0.3c1.1,0.1,2.2,0.4,3.2,1c1.1,0.6,2.1,1.4,3,2.5
			s1.7,2.6,2.2,4.4c0.5,1.6,0.7,3.3,0.7,4.9c0,1.6-0.5,3.2-1.6,4.7l-4-2.4c0.6-0.7,1.1-1.6,1.3-2.7c0.2-1.1,0.1-2.2-0.2-3.4
			c-0.3-1.1-0.8-2-1.3-2.7s-1.1-1.1-1.7-1.5c-0.6-0.3-1.2-0.5-1.8-0.5c-0.6,0-1.1,0-1.6,0.2c-1.3,0.4-2.1,1-2.6,2
			c-0.5,0.9-0.7,2-0.8,3.2c-0.1,1.2-0.1,2.5-0.1,3.9s-0.1,2.7-0.4,4s-0.8,2.4-1.6,3.4c-0.8,1-2.1,1.8-3.9,2.4
			c-1.4,0.4-2.8,0.5-4.1,0.3c-1.3-0.2-2.5-0.7-3.6-1.3s-2-1.6-2.8-2.7s-1.4-2.4-1.8-3.9c-0.6-1.9-0.8-3.8-0.6-5.7
			c0.2-1.9,0.8-3.6,1.9-5L489.7,213.3z"/>
		<path class="st15" d="M517.7,258.2c1-1,1.7-2.3,2.1-3.7c0.4-1.4,0.5-2.8,0.3-4.3c-0.3-1.7-0.8-3.3-1.7-4.6s-1.9-2.4-3.2-3.2
			s-2.7-1.4-4.3-1.7c-1.6-0.3-3.3-0.4-5-0.1c-1.6,0.2-3.1,0.7-4.5,1.5s-2.5,1.7-3.5,2.8s-1.7,2.5-2.1,4s-0.5,3.2-0.2,5
			s0.9,3.3,1.8,4.5s2.1,2.2,3.5,2.9l-2.1,3.9c-0.4-0.2-0.9-0.5-1.6-1s-1.4-1.2-2.1-2c-0.7-0.9-1.4-1.9-2.1-3.2
			c-0.6-1.3-1.1-2.8-1.4-4.6c-0.4-2.4-0.2-4.7,0.4-6.8s1.6-3.9,2.9-5.5s2.9-2.9,4.6-3.9c1.8-1,3.7-1.7,5.6-1.9
			c2.4-0.4,4.6-0.3,6.8,0.2c2.1,0.5,4,1.3,5.7,2.5s3.1,2.7,4.2,4.6c1.1,1.9,1.8,4,2.2,6.3c0.3,2,0.2,4.1-0.3,6.2
			c-0.5,2.1-1.5,3.9-2.9,5.3L517.7,258.2z"/>
		<path class="st15" d="M525.6,273.8l-0.1,4.2l-12.9-0.2l-0.3,16.1l12.9,0.2l-0.1,4.2l-31.1-0.5l0.1-4.2l14.3,0.2l0.3-16.1
			l-14.3-0.2l0.1-4.2L525.6,273.8z"/>
		<path class="st15" d="M523.2,317.2l-18.8-3.3c-1-0.2-2-0.2-3-0.1c-1.1,0.1-2.1,0.3-3.1,0.8s-1.8,1.1-2.5,2s-1.2,2.1-1.5,3.5
			s-0.2,2.7,0.2,3.8c0.4,1.1,0.9,2,1.7,2.8c0.8,0.8,1.6,1.4,2.6,1.8s1.9,0.7,2.9,0.9l18.8,3.3l-0.7,4.2l-19.5-3.4
			c-1.8-0.3-3.4-0.9-4.7-1.8c-1.4-0.9-2.5-1.9-3.4-3.2c-0.9-1.3-1.5-2.7-1.8-4.2s-0.3-3.2,0-4.8c0.3-1.7,0.9-3.2,1.7-4.5
			c0.8-1.3,1.9-2.5,3.1-3.3s2.7-1.5,4.2-1.8c1.6-0.4,3.2-0.4,5-0.1l19.5,3.4L523.2,317.2z M529.3,330.7c-0.1,0.7-0.5,1.2-1,1.7
			c-0.6,0.5-1.2,0.7-1.9,0.5c-0.8-0.1-1.4-0.5-1.8-1.1s-0.6-1.3-0.4-2.1c0.1-0.8,0.5-1.4,1.1-1.8s1.3-0.6,2.1-0.4
			c0.7,0.1,1.3,0.5,1.6,1.2C529.3,329.4,529.4,330.1,529.3,330.7z M530.8,321.9c-0.1,0.7-0.5,1.2-1,1.7c-0.6,0.5-1.2,0.7-1.9,0.5
			c-0.8-0.1-1.4-0.5-1.8-1.1s-0.6-1.3-0.4-2.1c0.1-0.8,0.5-1.4,1.1-1.8s1.3-0.6,2.1-0.4c0.7,0.1,1.3,0.5,1.6,1.2
			C530.8,320.6,531,321.2,530.8,321.9z"/>
		<path class="st15" d="M510.2,355.6l3.1-9.5l3.8,1.2l-7.6,23.1l-3.8-1.2l3.1-9.5l-25.8-8.5l1.3-4L510.2,355.6z"/>
		<path class="st15" d="M481.8,366.4l13.1,26.1l7.5-15.5l3.6,1.7l-9.8,20.2l-3.6-1.7l-13.2-26l-7.8,16.1l-3.6-1.7l10.2-20.9
			L481.8,366.4z"/>
		<path class="st15" d="M483,412.9l5.5-8.4l3.3,2.2L478.4,427l-3.3-2.2l5.5-8.4l-22.7-15l2.3-3.5L483,412.9z"/>
	</g>
	<g>
		<path class="st15" d="M237.7,509c0-1,0.2-2,0.6-2.9c0.4-0.9,0.9-1.7,1.6-2.4c0.7-0.7,1.5-1.2,2.4-1.6s1.9-0.6,2.9-0.6
			s2,0.2,2.9,0.6s1.7,0.9,2.4,1.6s1.2,1.5,1.6,2.4c0.4,0.9,0.6,1.9,0.6,2.9s-0.2,2-0.6,2.9c-0.4,0.9-0.9,1.7-1.6,2.4
			c-0.7,0.7-1.5,1.2-2.4,1.6c-0.9,0.4-1.9,0.6-2.9,0.6s-2-0.2-2.9-0.6c-0.9-0.4-1.7-0.9-2.4-1.6c-0.7-0.7-1.2-1.5-1.6-2.4
			S237.7,510.1,237.7,509z M239,509c0,0.8,0.2,1.6,0.5,2.4c0.3,0.7,0.8,1.4,1.3,2c0.6,0.6,1.2,1,2,1.3c0.7,0.3,1.5,0.5,2.4,0.5
			s1.6-0.2,2.4-0.5c0.7-0.3,1.4-0.8,2-1.3c0.6-0.6,1-1.2,1.3-2c0.3-0.7,0.5-1.5,0.5-2.4s-0.2-1.6-0.5-2.4c-0.3-0.7-0.8-1.4-1.3-2
			c-0.6-0.6-1.2-1-2-1.3c-0.7-0.3-1.5-0.5-2.4-0.5s-1.6,0.2-2.4,0.5c-0.7,0.3-1.4,0.8-2,1.3c-0.6,0.6-1,1.2-1.3,2S239,508.2,239,509
			z M248.9,510.4c-0.2,1-0.6,1.7-1.3,2.3s-1.5,0.8-2.4,0.8c-0.7,0-1.3-0.1-1.9-0.3s-1-0.5-1.4-0.9s-0.7-0.9-0.9-1.4
			c-0.2-0.6-0.3-1.2-0.3-1.9s0.1-1.3,0.3-1.9s0.5-1,0.8-1.4c0.4-0.4,0.8-0.7,1.4-0.9c0.5-0.2,1.2-0.3,1.9-0.3c1,0,1.8,0.3,2.5,0.8
			s1.1,1.3,1.3,2.3h-1.6c-0.1-0.5-0.4-0.9-0.7-1.2c-0.3-0.3-0.8-0.4-1.5-0.4c-1,0-1.7,0.3-2.1,0.8c-0.5,0.5-0.7,1.3-0.7,2.3
			c0,0.4,0.1,0.8,0.2,1.2c0.1,0.4,0.3,0.7,0.6,1c0.2,0.3,0.5,0.5,0.9,0.7s0.8,0.2,1.2,0.2c0.6,0,1.1-0.2,1.5-0.5s0.6-0.7,0.7-1.2
			L248.9,510.4L248.9,510.4z"/>
		<path class="st15" d="M253.1,501.9h2l3.1,11.3l0,0l3.3-11.3h2.2l3.3,11.3l0,0l3.1-11.3h2l-4.1,14.2h-2l-3.4-11.6l0,0l-3.4,11.6h-2
			L253.1,501.9z"/>
		<path class="st15" d="M274.2,501.9h8.9v1.8h-7v4.4h6.5v1.8h-6.5v6.1h-1.9V501.9z"/>
		<path class="st15" d="M284.8,514.1l5.7-5.6c0.2-0.2,0.4-0.4,0.6-0.6s0.4-0.5,0.5-0.7s0.3-0.5,0.3-0.8c0.1-0.3,0.1-0.5,0.1-0.8
			s-0.1-0.7-0.2-0.9c-0.1-0.3-0.3-0.5-0.5-0.7s-0.5-0.3-0.8-0.4s-0.6-0.2-0.9-0.2c-0.7,0-1.3,0.2-1.7,0.6c-0.5,0.4-0.7,0.9-0.9,1.6
			l-2.1-0.2c0.1-0.6,0.3-1.2,0.5-1.6s0.6-0.8,1-1.2s0.9-0.5,1.4-0.7s1.1-0.2,1.7-0.2s1.2,0.1,1.7,0.2c0.5,0.2,1,0.4,1.4,0.7
			c0.4,0.3,0.7,0.7,1,1.2c0.2,0.5,0.4,1.1,0.4,1.7c0,0.5-0.1,0.9-0.2,1.3s-0.3,0.8-0.6,1.2c-0.2,0.4-0.5,0.7-0.8,1s-0.6,0.6-0.9,0.9
			l-4.7,4.5h7.1v1.7h-9.3v-2H284.8z"/>
		<path class="st15" d="M295.6,509c0-0.5,0-1.1,0.1-1.6c0.1-0.6,0.2-1.1,0.3-1.6c0.1-0.5,0.3-1.1,0.6-1.6c0.2-0.5,0.5-0.9,0.9-1.3
			s0.8-0.7,1.3-0.9c0.5-0.2,1.1-0.3,1.8-0.3c0.7,0,1.2,0.1,1.8,0.3c0.5,0.2,0.9,0.5,1.3,0.9s0.7,0.8,0.9,1.3c0.2,0.5,0.4,1,0.6,1.6
			s0.2,1.1,0.3,1.6c0.1,0.6,0.1,1.1,0.1,1.6c0,0.7-0.1,1.5-0.2,2.4s-0.4,1.6-0.7,2.4c-0.4,0.7-0.9,1.3-1.5,1.8s-1.4,0.7-2.4,0.7
			s-1.8-0.2-2.5-0.7c-0.6-0.5-1.1-1.1-1.5-1.8s-0.6-1.5-0.7-2.4S295.6,509.8,295.6,509z M297.6,509c0,0.5,0,1,0.1,1.7
			c0.1,0.6,0.2,1.3,0.4,1.8c0.2,0.6,0.5,1.1,0.9,1.5s0.9,0.6,1.6,0.6s1.2-0.2,1.6-0.6c0.4-0.4,0.7-0.9,0.9-1.5
			c0.2-0.6,0.3-1.2,0.4-1.8s0.1-1.2,0.1-1.7c0-0.3,0-0.7,0-1.1s-0.1-0.8-0.1-1.2c-0.1-0.4-0.2-0.8-0.3-1.2c-0.1-0.4-0.3-0.7-0.5-1.1
			c-0.2-0.3-0.5-0.6-0.8-0.8c-0.3-0.2-0.7-0.3-1.1-0.3s-0.8,0.1-1.1,0.3c-0.3,0.2-0.6,0.4-0.8,0.8c-0.2,0.3-0.4,0.7-0.5,1.1
			s-0.2,0.8-0.3,1.2s-0.1,0.8-0.1,1.2C297.6,508.3,297.6,508.7,297.6,509z"/>
		<path class="st15" d="M307,514.1l5.7-5.6c0.2-0.2,0.4-0.4,0.6-0.6s0.4-0.5,0.5-0.7s0.3-0.5,0.4-0.8s0.1-0.5,0.1-0.8
			s-0.1-0.7-0.2-0.9c-0.1-0.3-0.3-0.5-0.5-0.7s-0.5-0.3-0.8-0.4s-0.6-0.2-1-0.2c-0.7,0-1.3,0.2-1.7,0.6s-0.7,0.9-0.9,1.6l-2.1-0.2
			c0.1-0.6,0.3-1.2,0.5-1.6s0.6-0.8,1-1.2c0.4-0.3,0.9-0.5,1.4-0.7c0.5-0.1,1.1-0.2,1.7-0.2s1.2,0.1,1.7,0.2c0.5,0.2,1,0.4,1.4,0.7
			c0.4,0.3,0.7,0.7,1,1.2c0.2,0.5,0.4,1.1,0.4,1.7c0,0.5-0.1,0.9-0.2,1.3s-0.3,0.8-0.5,1.2s-0.5,0.7-0.8,1s-0.6,0.6-0.9,0.9
			l-4.7,4.5h7.1v1.7H307V514.1z"/>
		<path class="st15" d="M318.1,514.1l5.7-5.6c0.2-0.2,0.4-0.4,0.6-0.6s0.4-0.5,0.5-0.7s0.3-0.5,0.4-0.8s0.1-0.5,0.1-0.8
			s-0.1-0.7-0.2-0.9c-0.1-0.3-0.3-0.5-0.5-0.7s-0.5-0.3-0.8-0.4s-0.6-0.2-1-0.2c-0.7,0-1.3,0.2-1.7,0.6s-0.7,0.9-0.9,1.6l-2.1-0.2
			c0.1-0.6,0.3-1.2,0.6-1.6c0.3-0.5,0.6-0.8,1-1.2c0.4-0.3,0.9-0.5,1.4-0.7c0.5-0.1,1.1-0.2,1.7-0.2s1.2,0.1,1.7,0.2
			c0.5,0.2,1,0.4,1.4,0.7c0.4,0.3,0.7,0.7,1,1.2c0.2,0.5,0.4,1.1,0.4,1.7c0,0.5-0.1,0.9-0.2,1.3s-0.3,0.8-0.5,1.2s-0.5,0.7-0.8,1
			s-0.6,0.6-0.9,0.9l-4.7,4.5h7.1v1.7h-9.3L318.1,514.1L318.1,514.1z"/>
	</g>
	<g>
		<path class="st0" d="M114.3,306.4h14.8c1.7,0,3.5,0.1,5.2,0.4c1.7,0.2,3.3,0.7,4.7,1.5c1.4,0.7,2.5,1.8,3.4,3.1
			c0.9,1.3,1.3,3.1,1.3,5.2c0,2.2-0.6,4.1-1.9,5.6c-1.3,1.5-2.9,2.5-5,3.2v0.1c1.3,0.2,2.5,0.6,3.6,1.1s2,1.2,2.8,2.1
			c0.8,0.8,1.4,1.8,1.8,2.9c0.4,1.1,0.6,2.3,0.6,3.6c0,2.1-0.4,3.8-1.3,5.3s-2.1,2.5-3.5,3.4s-3,1.5-4.8,1.9s-3.5,0.6-5.3,0.6h-16.3
			v-40L114.3,306.4L114.3,306.4z M123,322.3h6.3c0.7,0,1.3-0.1,2-0.2s1.2-0.4,1.8-0.7c0.5-0.3,0.9-0.8,1.3-1.3
			c0.3-0.6,0.5-1.2,0.5-2s-0.2-1.5-0.5-2.1c-0.4-0.5-0.8-1-1.4-1.3s-1.2-0.5-1.9-0.6s-1.4-0.2-2.1-0.2h-6L123,322.3L123,322.3z
			 M123,338.8h7.9c0.7,0,1.4-0.1,2.1-0.2c0.7-0.1,1.3-0.4,1.9-0.8c0.6-0.4,1-0.9,1.4-1.5s0.5-1.3,0.5-2.2c0-0.9-0.2-1.7-0.7-2.3
			c-0.5-0.6-1.1-1-1.8-1.3s-1.5-0.5-2.3-0.6s-1.6-0.2-2.3-0.2H123V338.8z"/>
		<path class="st0" d="M156.6,306.4h8.8v31.7h16.2v8.1h-25V306.4z"/>
		<path class="st0" d="M205.2,306.4h7.2l17.3,39.8h-9.9l-3.4-8.4h-15.5l-3.3,8.4H188L205.2,306.4z M208.5,318l-4.8,12.4h9.7
			L208.5,318z"/>
		<path class="st0" d="M272.9,330.8c0,2.4-0.4,4.5-1.1,6.5s-1.8,3.7-3.2,5.2s-3.2,2.6-5.3,3.4c-2.1,0.8-4.5,1.2-7.2,1.2
			c-2.8,0-5.2-0.4-7.3-1.2c-2.1-0.8-3.8-2-5.3-3.4s-2.5-3.2-3.2-5.2s-1.1-4.2-1.1-6.5v-24.4h8.8v24.1c0,1.2,0.2,2.4,0.6,3.4
			c0.4,1,0.9,2,1.7,2.7c0.7,0.8,1.6,1.4,2.6,1.8s2.1,0.6,3.2,0.6c1.2,0,2.2-0.2,3.2-0.6s1.8-1,2.5-1.8s1.3-1.7,1.7-2.7
			c0.4-1,0.6-2.2,0.6-3.4v-24.1h8.8V330.8z"/>
		<path class="st0" d="M286.9,306.4h8.8v31.7h16.2v8.1h-25V306.4z"/>
		<path class="st0" d="M322.3,306.4h8.8v39.8h-8.8V306.4z"/>
		<path class="st0" d="M370.6,316.7c-0.9-1-1.9-1.9-3.2-2.4c-1.3-0.6-2.7-0.8-4.4-0.8c-1.6,0-3.2,0.3-4.6,1
			c-1.4,0.6-2.6,1.5-3.7,2.7c-1,1.1-1.8,2.5-2.4,4.1s-0.9,3.3-0.9,5.1c0,1.9,0.3,3.6,0.9,5.1c0.6,1.6,1.4,2.9,2.4,4s2.2,2,3.6,2.7
			c1.4,0.6,2.8,1,4.4,1c1.8,0,3.4-0.4,4.8-1.1s2.5-1.8,3.4-3.1l7.3,5.5c-1.7,2.4-3.8,4.1-6.4,5.2s-5.2,1.7-8,1.7
			c-3.1,0-6-0.5-8.6-1.5s-4.9-2.4-6.8-4.2c-1.9-1.8-3.4-4-4.5-6.6s-1.6-5.5-1.6-8.7s0.5-6.1,1.6-8.7s2.6-4.8,4.5-6.6
			c1.9-1.8,4.2-3.2,6.8-4.2c2.6-1,5.5-1.5,8.6-1.5c1.1,0,2.3,0.1,3.5,0.3c1.2,0.2,2.4,0.5,3.6,1s2.3,1,3.4,1.8
			c1.1,0.7,2.1,1.7,2.9,2.8L370.6,316.7z"/>
		<path class="st0" d="M388.7,306.4h8.8v14.8h17v-14.8h8.8v39.8h-8.8V329h-17v17.2h-8.8V306.4z"/>
		<path class="st0" d="M444.7,314.2h-11.3v-7.8h31.5v7.8h-11.4v32h-8.8L444.7,314.2L444.7,314.2z"/>
		<path class="st15" d="M175.5,355.8h7.7l7.6,20.1h0.1l7.7-20.1h7.2l-12.6,30.6h-5.4L175.5,355.8z"/>
		<path class="st15" d="M210.1,355.8h20.8v6.2h-14v5.7h13.3v6.2h-13.3v6.2h14.8v6.2h-21.6V355.8z"/>
		<path class="st15" d="M237.9,355.8h11.8c1.6,0,3,0.2,4.4,0.5s2.6,0.8,3.7,1.5s1.9,1.7,2.5,2.9c0.6,1.2,0.9,2.7,0.9,4.5
			c0,2.2-0.6,4-1.7,5.5s-2.8,2.5-4.9,2.9l7.8,12.9h-8.1l-6.4-12.2h-3.3v12.2h-6.7L237.9,355.8L237.9,355.8z M244.7,368.4h4
			c0.6,0,1.2,0,1.9-0.1c0.7,0,1.3-0.2,1.8-0.4c0.5-0.2,1-0.6,1.4-1s0.5-1.1,0.5-1.9s-0.2-1.4-0.5-1.9s-0.7-0.8-1.2-1.1
			c-0.5-0.2-1.1-0.4-1.7-0.5c-0.6-0.1-1.3-0.1-1.9-0.1h-4.4L244.7,368.4L244.7,368.4z"/>
		<path class="st15" d="M266.8,355.8h10.1c2.4,0,4.8,0.3,7,0.8s4.1,1.4,5.8,2.7c1.6,1.2,2.9,2.8,3.9,4.8s1.4,4.3,1.4,7.1
			c0,2.5-0.5,4.7-1.4,6.5c-0.9,1.9-2.2,3.5-3.8,4.8c-1.6,1.3-3.4,2.3-5.5,2.9c-2.1,0.7-4.3,1-6.5,1h-11V355.8z M273.5,380.2h3.5
			c1.6,0,3-0.2,4.3-0.5s2.5-0.8,3.5-1.6c1-0.7,1.8-1.7,2.3-2.9c0.6-1.2,0.8-2.7,0.8-4.4c0-1.5-0.3-2.8-0.8-3.9
			c-0.6-1.1-1.3-2-2.3-2.7s-2.1-1.3-3.3-1.6s-2.6-0.5-4-0.5h-4V380.2z"/>
		<path class="st15" d="M300.4,355.8h6.7v30.6h-6.7V355.8z"/>
		<path class="st15" d="M314.4,355.8h20.8v6.2h-14v5.7h13.3v6.2h-13.3v6.2H336v6.2h-21.6V355.8L314.4,355.8z"/>
		<path class="st15" d="M342.2,355.8h9.2l13,21.3h0.1v-21.3h6.7v30.6h-8.8L349,364.6h-0.1v21.8h-6.7L342.2,355.8L342.2,355.8z"/>
		<path class="st15" d="M384.2,361.7h-8.7v-6h24.2v6H391v24.6h-6.7L384.2,361.7L384.2,361.7z"/>
		<path class="st15" d="M193,396h11.8c1.6,0,3,0.2,4.4,0.5s2.6,0.8,3.7,1.5s1.9,1.7,2.5,2.9c0.6,1.2,0.9,2.7,0.9,4.5
			c0,2.2-0.6,4-1.7,5.5c-1.1,1.5-2.8,2.5-4.9,2.9l7.8,12.9h-8.1l-6.4-12.2h-3.3v12.2H193V396z M199.7,408.6h4c0.6,0,1.2,0,1.9-0.1
			c0.7,0,1.3-0.2,1.8-0.4c0.5-0.2,1-0.6,1.4-1s0.5-1.1,0.5-1.9s-0.2-1.4-0.5-1.9s-0.7-0.8-1.2-1.1c-0.5-0.2-1.1-0.4-1.7-0.5
			c-0.6-0.1-1.3-0.1-1.9-0.1h-4.4L199.7,408.6L199.7,408.6z"/>
		<path class="st15" d="M222.1,396h20.8v6.2h-14v5.7h13.3v6.2h-13.3v6.2h14.8v6.2h-21.6V396z"/>
		<path class="st15" d="M265.1,403.5c-0.5-0.7-1.3-1.2-2.2-1.5c-0.9-0.3-1.8-0.5-2.7-0.5c-0.5,0-1,0.1-1.5,0.2s-1,0.3-1.5,0.5
			s-0.8,0.6-1.1,1c-0.3,0.4-0.4,0.9-0.4,1.5c0,0.9,0.3,1.6,1,2.1c0.7,0.5,1.6,0.9,2.6,1.3c1.1,0.3,2.2,0.7,3.4,1
			c1.2,0.3,2.3,0.8,3.4,1.5c1.1,0.6,1.9,1.5,2.6,2.5c0.7,1.1,1,2.5,1,4.3c0,1.7-0.3,3.2-1,4.5c-0.6,1.3-1.5,2.3-2.6,3.2
			c-1.1,0.8-2.3,1.5-3.8,1.9s-2.9,0.6-4.5,0.6c-2,0-3.8-0.3-5.5-0.9s-3.3-1.6-4.8-2.9l4.8-5.3c0.7,0.9,1.6,1.6,2.6,2.1
			c1.1,0.5,2.1,0.8,3.3,0.8c0.5,0,1.1-0.1,1.7-0.2s1.1-0.3,1.5-0.6c0.4-0.3,0.8-0.6,1.1-1c0.3-0.4,0.4-0.9,0.4-1.4
			c0-0.9-0.4-1.6-1.1-2.2c-0.7-0.5-1.6-1-2.7-1.4s-2.2-0.7-3.5-1.1c-1.2-0.4-2.4-0.9-3.5-1.5s-2-1.5-2.7-2.5s-1.1-2.4-1.1-4.1
			c0-1.6,0.3-3.1,1-4.3c0.6-1.2,1.5-2.3,2.6-3.1s2.3-1.5,3.7-1.9s2.9-0.6,4.4-0.6c1.7,0,3.4,0.2,5,0.7s3.1,1.3,4.4,2.5L265.1,403.5z
			"/>
		<path class="st15" d="M275.6,396H287c1.6,0,3.1,0.1,4.5,0.4s2.6,0.8,3.7,1.5s1.9,1.7,2.5,2.9s0.9,2.7,0.9,4.5s-0.3,3.3-0.9,4.5
			s-1.4,2.2-2.4,2.9c-1,0.7-2.2,1.2-3.6,1.5s-2.9,0.5-4.5,0.5h-4.9v11.9h-6.7V396z M282.3,408.9h4.5c0.6,0,1.2-0.1,1.8-0.2
			c0.6-0.1,1.1-0.3,1.5-0.6c0.4-0.3,0.8-0.6,1.1-1.1c0.3-0.5,0.4-1.1,0.4-1.8c0-0.8-0.2-1.4-0.5-1.9c-0.4-0.5-0.8-0.8-1.4-1.1
			c-0.6-0.3-1.2-0.4-1.9-0.5c-0.7-0.1-1.4-0.1-2-0.1h-3.5V408.9z"/>
		<path class="st15" d="M303.9,396h20.8v6.2h-14v5.7H324v6.2h-13.3v6.2h14.8v6.2h-21.6V396z"/>
		<path class="st15" d="M332,396h6.7v12.7l11.9-12.7h8.8l-13.6,14.2l14.8,16.4h-9.4l-12.4-14.5v14.5H332V396z"/>
		<path class="st15" d="M369.8,401.9H361v-6h24.2v6h-8.7v24.6h-6.7V401.9z"/>
	</g>
</g>
</svg>
